<svg version="1.2" baseProfile="tiny-ps" xmlns="http://www.w3.org/2000/svg" viewBox="0 0 400 400" width="400" height="400">
	<title>notFound-svg</title>
	<style>
		tspan { white-space:pre }
		.shp0 { fill: #545454 } 
	</style>
	<g id="svgg">
		<path id="path0" fill-rule="evenodd" class="shp0" d="M214.4 46.8L271.16 46.8C324.1 46.8 327.93 46.84 328.17 47.48C328.32 47.85 328.41 50.92 328.38 54.3C328.35 57.69 328.41 60.55 328.52 60.66C328.63 60.77 331.75 60.89 335.46 60.93L342.2 61L342.3 92.7L342.4 124.4L306.9 124.5L271.4 124.6L271.4 139.4L292.71 139.5L314.02 139.61L313.91 146.3L313.8 153L256.6 153.4L256.49 167.2C256.43 174.79 256.48 181.41 256.6 181.9L256.81 182.8L285.12 182.8L285.26 184.3C285.34 185.13 285.35 191.25 285.29 197.9L285.18 210L278.59 210C273.6 210 271.99 209.88 271.97 209.5C271.96 209.22 271.97 206.24 272 202.87C272.04 198.64 271.9 196.57 271.57 196.17C271.09 195.59 258.38 195.33 256.97 195.87C256.49 196.05 256.4 199.85 256.4 220.84L256.4 245.6L249.68 245.6C244.99 245.6 242.81 245.75 242.48 246.08C242.13 246.43 242 249.39 242 256.88L242 267.2L228 267.2L228 281.18L213.8 281.4L213.8 338.6L227.8 339L227.8 352.2L200 352.41L200 331.25C200 314.69 199.89 310.05 199.5 309.9C199.22 309.79 196.13 309.67 192.62 309.63C189.11 309.58 186.09 309.46 185.92 309.35C185.74 309.24 185.6 306.01 185.6 302.17L185.6 295.18L171 295.4L170.78 309.6L164.69 309.66C161.34 309.69 158.33 309.74 158 309.76C156.49 309.86 156.4 310.3 156.4 317.22L156.4 324L149.42 324C145.23 324 142.35 324.16 142.2 324.4C142.01 324.71 141.9 331.62 141.99 338C142 338.77 142.27 338.8 149.2 338.8L156.4 338.8L156.4 352.4L128.4 352.4L128.39 324.5C128.39 309.15 128.25 296.38 128.08 296.11C127.86 295.76 125.8 295.59 120.98 295.51L114.2 295.4L113.8 281.4L99.62 281.18L99.4 266.6L92.7 266.49L86 266.38L85.99 259.69C85.99 251.26 86.75 252.04 78.38 251.91L71.4 251.8L71.29 245.43C71.15 237.37 71.81 238 63.55 238L56.8 238L57 153.8L63.7 153.69L70.4 153.58L70.4 167.54C70.4 178.23 70.52 181.59 70.9 181.9C71.17 182.12 73.83 182.32 76.8 182.34C79.77 182.36 82.78 182.38 83.49 182.39L84.78 182.4L84.89 189.3L85 196.2L92 196.42C95.85 196.55 99.04 196.68 99.09 196.72C99.14 196.77 99.23 199.91 99.29 203.7L99.4 210.6L113.48 210.71C130.26 210.83 128.46 211.78 128.38 202.89L128.32 196.6L135.26 196.4L142.2 196.2L142.6 182.6L153.4 182.38C159.34 182.25 164.25 182.12 164.3 182.08C164.35 182.03 164.4 178.85 164.4 175.01L164.4 168.01L174.9 167.91L185.4 167.8L185.8 153.8L199.8 153.4L199.9 107.64C199.98 73.81 200.12 61.73 200.47 61.32C200.83 60.89 202.29 60.78 207.24 60.82C215.13 60.89 214.4 61.63 214.4 53.58L214.4 46.8ZM242.6 67.8L228 67.58L228 82.42L242.6 82.2L242.6 67.8Z" />
	</g>
</svg>