<svg id="svg" version="1.1" xmlns="http://www.w3.org/2000/svg" xmlns:xlink="http://www.w3.org/1999/xlink" width="400" height="400" viewBox="0, 0, 400,400"><g id="svgg"><path id="path0" d="M214.400 53.576 C 214.400 61.628,215.132 60.887,207.241 60.820 C 202.289 60.778,200.826 60.887,200.465 61.322 C 200.124 61.733,199.977 73.807,199.902 107.639 L 199.800 153.400 192.800 153.600 L 185.800 153.800 185.600 160.800 L 185.400 167.800 174.900 167.907 L 164.400 168.013 164.400 175.007 C 164.400 178.853,164.355 182.035,164.300 182.077 C 164.245 182.120,159.340 182.255,153.400 182.377 L 142.600 182.600 142.400 189.400 L 142.200 196.200 135.261 196.400 L 128.321 196.600 128.378 202.894 C 128.459 211.775,130.260 210.830,113.483 210.705 L 99.400 210.600 99.291 203.700 C 99.230 199.905,99.140 196.766,99.091 196.724 C 99.041 196.682,95.850 196.547,92.000 196.424 L 85.000 196.200 84.891 189.300 L 84.781 182.400 83.491 182.388 C 82.781 182.381,79.770 182.359,76.800 182.337 C 73.830 182.316,71.175 182.120,70.900 181.901 C 70.517 181.595,70.400 178.231,70.400 167.541 L 70.400 153.581 63.700 153.690 L 57.000 153.800 56.898 195.900 L 56.796 238.000 63.549 238.000 C 71.807 238.000,71.150 237.369,71.289 245.428 L 71.400 251.800 78.382 251.910 C 86.747 252.041,85.986 251.264,85.994 259.690 L 86.000 266.381 92.700 266.490 L 99.400 266.600 99.509 273.891 L 99.618 281.182 106.709 281.291 L 113.800 281.400 114.000 288.400 L 114.200 295.400 120.983 295.510 C 125.795 295.588,127.856 295.762,128.076 296.110 C 128.248 296.380,128.391 309.155,128.394 324.500 L 128.400 352.400 142.400 352.400 L 156.400 352.400 156.400 345.600 L 156.400 338.800 149.200 338.800 C 142.270 338.800,142.000 338.770,141.989 338.000 C 141.900 331.621,142.008 324.710,142.201 324.398 C 142.349 324.159,145.230 324.000,149.424 324.000 L 156.400 324.000 156.400 317.224 C 156.400 310.299,156.494 309.862,158.000 309.759 C 158.330 309.737,161.341 309.692,164.691 309.659 L 170.782 309.600 170.891 302.500 L 171.000 295.400 178.300 295.291 L 185.600 295.182 185.600 302.167 C 185.600 306.009,185.744 309.242,185.919 309.350 C 186.095 309.459,189.110 309.584,192.619 309.628 C 196.129 309.672,199.225 309.794,199.500 309.897 C 199.891 310.045,200.000 314.685,200.000 331.248 L 200.000 352.410 213.900 352.305 L 227.800 352.200 227.800 345.600 L 227.800 339.000 220.800 338.800 L 213.800 338.600 213.800 310.000 L 213.800 281.400 220.900 281.291 L 228.000 281.182 228.000 274.191 L 228.000 267.200 235.000 267.200 L 242.000 267.200 242.000 256.880 C 242.000 249.387,242.131 246.429,242.480 246.080 C 242.815 245.745,244.987 245.600,249.680 245.600 L 256.400 245.600 256.400 220.843 C 256.400 199.851,256.486 196.053,256.967 195.868 C 258.375 195.328,271.093 195.589,271.573 196.168 C 271.903 196.566,272.035 198.637,271.998 202.872 C 271.969 206.242,271.958 209.225,271.973 209.500 C 271.993 209.879,273.599 210.000,278.589 210.000 L 285.177 210.000 285.289 197.900 C 285.350 191.245,285.336 185.125,285.258 184.300 L 285.116 182.800 270.966 182.800 L 256.815 182.800 256.596 181.900 C 256.475 181.405,256.427 174.790,256.488 167.200 L 256.600 153.400 285.200 153.200 L 313.800 153.000 313.910 146.304 L 314.019 139.607 292.710 139.504 L 271.400 139.400 271.400 132.000 L 271.400 124.600 306.902 124.498 L 342.405 124.396 342.302 92.698 L 342.200 61.000 335.461 60.928 C 331.755 60.888,328.632 60.766,328.523 60.656 C 328.413 60.547,328.348 57.689,328.379 54.305 C 328.409 50.922,328.317 47.849,328.174 47.477 C 327.932 46.845,324.101 46.800,271.157 46.800 L 214.400 46.800 214.400 53.576 M242.600 75.000 L 242.600 82.200 235.300 82.309 L 228.000 82.418 228.000 75.000 L 228.000 67.582 235.300 67.691 L 242.600 67.800 242.600 75.000 " stroke="none" fill="#545454" fill-rule="evenodd"></path><path id="path1" d="M0.000 200.000 L 0.000 400.000 200.000 400.000 L 400.000 400.000 400.000 200.000 L 400.000 0.000 200.000 0.000 L 0.000 0.000 0.000 200.000 M331.600 34.923 C 335.555 36.150,336.842 37.029,338.451 39.600 C 339.025 40.517,339.345 41.422,340.803 46.263 C 341.368 48.140,342.478 48.798,346.505 49.645 C 347.772 49.911,349.009 50.370,349.254 50.665 C 349.498 50.959,349.930 51.200,350.213 51.200 C 351.847 51.200,353.823 55.114,354.633 59.954 C 355.328 64.110,355.449 117.106,354.780 124.293 C 354.204 130.473,351.097 135.600,347.926 135.600 C 347.615 135.600,347.189 135.755,346.980 135.944 C 346.125 136.716,341.470 137.200,334.833 137.206 C 325.792 137.214,326.613 136.370,326.588 145.683 C 326.555 158.714,324.977 162.162,317.867 164.742 L 315.000 165.782 292.814 165.913 C 269.317 166.052,269.600 166.026,269.600 168.000 C 269.600 169.763,270.164 169.896,278.600 170.120 C 296.899 170.604,297.805 171.836,297.791 196.200 C 297.781 213.337,297.487 215.494,294.708 218.806 C 292.519 221.414,286.056 222.809,276.993 222.630 C 270.815 222.507,269.939 222.569,269.635 223.145 C 269.446 223.505,269.193 228.840,269.073 235.000 C 268.744 251.894,267.224 255.845,260.600 257.023 C 258.668 257.367,255.974 258.387,255.334 259.017 C 255.077 259.270,254.765 261.255,254.639 263.438 C 254.039 273.855,251.682 277.414,244.200 279.202 C 240.947 279.979,239.392 281.574,239.716 283.799 C 239.939 285.331,237.923 289.277,236.224 290.634 C 235.551 291.172,234.783 291.789,234.517 292.006 C 234.251 292.223,233.677 292.400,233.240 292.400 C 232.804 292.400,232.336 292.580,232.200 292.800 C 232.064 293.020,231.253 293.200,230.399 293.200 C 229.363 293.200,228.497 293.500,227.802 294.100 L 226.760 295.000 226.773 309.961 C 226.788 326.900,226.593 325.912,230.092 326.749 C 232.559 327.340,236.072 328.973,236.934 329.930 C 241.878 335.422,241.948 355.858,237.041 361.134 C 233.773 364.648,230.558 365.233,214.678 365.207 C 188.114 365.162,187.667 364.722,187.584 338.522 C 187.556 329.777,187.385 324.367,187.118 323.780 C 185.660 320.580,172.086 320.236,169.549 323.335 C 168.940 324.080,167.868 327.870,168.046 328.649 C 168.091 328.842,167.990 329.313,167.823 329.695 C 167.479 330.479,167.627 332.103,168.552 337.680 C 170.162 347.396,168.845 358.060,165.643 361.233 C 162.119 364.724,160.371 365.002,142.000 364.990 C 114.908 364.972,115.513 365.782,115.572 329.600 C 115.609 306.558,115.982 308.463,111.200 307.272 C 106.150 306.014,103.654 304.040,102.763 300.600 C 102.535 299.720,102.180 298.447,101.974 297.772 C 101.768 297.096,101.600 296.269,101.600 295.934 C 101.600 294.843,100.133 293.958,97.046 293.187 C 91.048 291.688,87.600 287.870,87.600 282.728 C 87.600 280.063,86.946 279.503,82.355 278.231 C 76.736 276.675,73.624 272.815,73.604 267.376 C 73.598 265.611,72.925 265.021,70.000 264.218 C 61.921 262.001,61.018 261.168,59.146 254.200 C 58.337 251.188,57.673 250.400,55.947 250.400 C 55.342 250.400,54.736 250.220,54.600 250.000 C 54.464 249.780,53.958 249.596,53.476 249.591 C 49.455 249.551,45.662 245.250,44.665 239.600 C 43.856 235.016,44.096 155.082,44.931 151.200 C 45.950 146.462,47.712 144.068,51.357 142.472 C 57.240 139.895,73.808 140.395,77.520 143.260 C 81.795 146.560,82.757 149.506,83.134 160.452 C 83.464 170.013,83.021 169.361,90.358 171.090 C 93.277 171.777,96.273 176.411,97.020 181.394 C 97.346 183.570,98.202 184.157,101.913 184.755 C 106.898 185.558,109.851 188.504,110.817 193.636 C 111.849 199.120,115.483 200.118,116.137 195.098 C 117.032 188.233,119.803 185.475,126.710 184.570 C 128.957 184.276,130.408 182.987,130.317 181.366 C 130.294 180.945,130.683 179.250,131.182 177.600 C 132.859 172.052,136.352 170.131,145.800 169.558 C 148.660 169.384,151.043 169.233,151.095 169.221 C 151.380 169.157,152.309 166.354,152.552 164.823 C 153.557 158.491,158.130 155.767,168.200 155.503 C 172.386 155.393,173.009 155.030,173.573 152.371 C 174.354 148.686,174.756 147.505,175.732 146.031 C 176.949 144.192,179.526 142.617,182.653 141.803 C 188.158 140.369,187.600 145.158,187.600 99.363 C 187.600 49.716,187.189 51.682,198.124 48.973 C 201.294 48.188,201.801 47.625,202.437 44.185 C 203.436 38.779,205.641 36.496,211.341 34.962 L 214.600 34.086 272.000 34.163 C 324.842 34.234,329.575 34.295,331.600 34.923 M213.400 36.660 C 207.077 37.444,204.909 39.806,204.459 46.400 L 204.200 50.200 202.562 50.234 C 201.660 50.253,200.495 50.568,199.973 50.934 C 199.450 51.300,198.364 51.600,197.560 51.600 C 194.915 51.600,192.551 52.971,191.418 55.164 C 189.941 58.022,189.861 60.233,189.726 101.900 C 189.639 128.509,189.454 142.817,189.196 142.850 C 188.978 142.877,188.305 142.955,187.700 143.022 C 178.800 144.005,176.219 146.397,175.638 154.200 L 175.400 157.400 169.800 157.653 C 157.101 158.228,155.045 159.553,154.476 167.526 L 154.200 171.400 148.200 171.645 C 135.670 172.158,133.141 173.813,132.549 181.889 C 132.223 186.323,132.284 186.262,127.885 186.602 C 121.148 187.123,118.946 189.126,118.512 195.127 C 118.149 200.162,117.919 200.400,113.410 200.400 C 109.117 200.400,108.748 200.152,109.103 197.509 C 109.218 196.652,109.116 195.287,108.876 194.476 C 108.636 193.664,108.336 192.500,108.210 191.890 C 107.557 188.741,104.630 187.017,99.200 186.583 C 95.048 186.251,94.867 186.122,95.105 183.652 C 95.220 182.456,95.120 181.598,94.846 181.428 C 94.601 181.277,94.400 180.650,94.400 180.036 C 94.400 175.129,91.086 172.735,82.900 171.728 C 81.965 171.614,81.197 171.313,81.194 171.060 C 80.893 147.850,80.238 145.804,72.429 143.646 C 69.768 142.911,58.527 142.786,55.400 143.457 C 50.537 144.501,46.438 148.386,46.938 151.477 C 47.016 151.959,46.939 153.219,46.766 154.277 C 46.425 156.361,46.300 234.111,46.632 237.400 C 47.345 244.466,50.471 248.088,55.462 247.632 C 55.936 247.588,56.441 247.743,56.585 247.976 C 56.729 248.209,57.737 248.400,58.824 248.400 C 60.424 248.400,60.808 248.533,60.840 249.100 C 61.045 252.694,61.144 253.607,61.481 255.000 C 62.440 258.969,63.896 260.624,67.000 261.276 C 67.880 261.461,69.050 261.705,69.600 261.819 C 70.150 261.933,71.680 262.155,73.000 262.313 L 75.400 262.600 75.667 265.200 C 76.584 274.118,78.693 276.201,87.700 277.090 L 89.600 277.277 89.606 280.139 C 89.621 287.705,92.086 290.423,99.800 291.380 L 103.400 291.826 103.698 294.013 C 103.862 295.216,104.072 296.944,104.166 297.854 C 104.658 302.628,107.202 304.701,113.400 305.381 L 117.400 305.819 117.648 328.210 C 117.905 351.336,118.148 355.529,119.386 358.123 C 120.557 360.577,123.623 362.400,126.580 362.400 C 127.273 362.400,128.027 362.587,128.255 362.815 C 129.173 363.733,159.633 362.917,160.226 361.958 C 160.348 361.761,160.809 361.600,161.250 361.600 C 166.390 361.600,168.979 344.874,165.564 333.735 C 165.154 332.399,165.151 331.610,165.549 329.735 C 165.822 328.451,166.185 326.230,166.355 324.800 C 166.791 321.140,167.187 320.561,169.485 320.237 C 172.810 319.768,173.362 319.664,175.000 319.193 C 178.517 318.184,179.250 318.226,183.220 319.662 C 183.781 319.865,185.401 320.159,186.820 320.316 L 189.400 320.600 189.636 336.600 C 189.932 356.594,190.174 358.181,193.292 360.534 C 194.540 361.476,195.355 361.760,199.706 362.761 C 202.295 363.357,225.751 363.350,228.294 362.752 C 233.238 361.590,233.832 361.352,235.202 359.990 C 237.612 357.594,238.042 355.503,238.078 346.000 C 238.131 331.828,236.814 329.781,226.800 328.476 L 224.600 328.189 224.600 310.001 L 224.600 291.814 227.800 291.354 C 232.082 290.739,233.567 290.232,235.045 288.882 C 236.445 287.604,238.152 283.507,237.879 282.080 C 237.781 281.566,237.922 280.393,238.193 279.473 L 238.685 277.800 241.871 277.400 C 243.623 277.180,245.532 276.685,246.114 276.300 C 246.696 275.915,247.520 275.600,247.944 275.600 C 249.076 275.600,251.121 273.061,251.402 271.309 C 251.535 270.479,251.751 269.440,251.883 269.000 C 252.014 268.560,252.229 265.590,252.361 262.400 L 252.600 256.600 254.156 256.473 C 255.012 256.402,255.970 256.087,256.285 255.773 C 256.622 255.435,257.645 255.200,258.778 255.200 C 265.426 255.200,266.861 251.079,267.033 231.483 C 267.144 218.824,267.016 219.434,269.503 219.796 C 273.787 220.420,284.453 220.453,286.957 219.849 C 288.301 219.525,289.972 219.145,290.671 219.005 C 293.126 218.511,294.420 216.466,295.229 211.800 C 295.628 209.503,295.746 183.847,295.369 181.656 C 294.418 176.141,293.024 174.098,289.800 173.491 C 289.140 173.367,287.880 173.075,287.000 172.842 C 286.110 172.607,281.460 172.415,276.524 172.410 C 270.792 172.403,267.556 172.252,267.389 171.982 C 267.050 171.434,267.053 164.561,267.393 164.012 C 267.572 163.721,274.839 163.588,290.527 163.588 C 324.666 163.588,324.071 163.892,324.107 146.400 C 324.114 142.990,323.934 139.210,323.706 138.000 C 323.141 135.001,322.826 135.101,333.074 135.022 C 338.093 134.984,343.010 134.755,344.000 134.514 C 353.211 132.271,352.905 133.686,352.937 93.200 C 352.962 61.777,352.708 56.907,350.900 54.141 C 350.258 53.159,346.651 51.600,345.020 51.600 C 344.107 51.600,343.143 51.383,342.878 51.118 C 342.613 50.853,341.542 50.538,340.498 50.418 L 338.600 50.200 338.498 48.200 C 338.291 44.135,336.554 39.219,335.051 38.444 C 331.255 36.488,335.079 36.603,272.600 36.555 C 240.700 36.531,214.060 36.578,213.400 36.660 M328.891 53.100 L 329.000 60.200 336.200 60.423 C 340.160 60.546,343.445 60.681,343.500 60.723 C 344.067 61.158,343.515 124.231,342.938 124.869 C 342.306 125.567,340.671 125.600,307.138 125.600 L 272.000 125.600 272.000 132.000 L 272.000 138.400 292.920 138.400 C 308.658 138.400,313.959 138.519,314.320 138.880 C 315.253 139.813,314.969 153.081,314.005 153.597 C 313.463 153.887,304.398 154.011,285.549 153.987 C 270.222 153.967,257.733 154.107,257.539 154.301 C 257.347 154.493,257.237 160.759,257.295 168.225 L 257.400 181.800 271.569 181.887 C 282.578 181.955,285.810 182.089,286.062 182.487 C 286.436 183.076,286.525 209.208,286.157 210.167 C 285.948 210.713,284.897 210.800,278.557 210.800 L 271.200 210.800 271.200 203.800 L 271.200 196.800 264.203 196.800 L 257.206 196.800 257.103 221.500 L 257.000 246.200 250.000 246.400 L 243.000 246.600 242.893 256.981 C 242.814 264.673,242.658 267.442,242.293 267.675 C 242.022 267.847,238.879 267.991,235.309 267.994 L 228.819 268.000 228.709 274.900 L 228.600 281.800 221.600 282.000 L 214.600 282.200 214.497 310.100 L 214.395 338.000 221.117 338.000 C 225.813 338.000,227.985 338.145,228.320 338.480 C 228.995 339.155,228.995 352.445,228.320 353.120 C 227.965 353.475,224.231 353.600,214.000 353.600 C 203.769 353.600,200.035 353.475,199.680 353.120 C 199.319 352.759,199.200 347.460,199.200 331.729 L 199.200 310.819 192.300 310.709 L 185.400 310.600 185.200 303.400 L 185.000 296.200 178.300 296.090 L 171.600 295.981 171.600 303.148 C 171.600 311.656,172.454 310.800,163.967 310.800 L 157.600 310.800 157.600 317.320 C 157.600 325.460,158.296 324.800,149.720 324.800 L 142.800 324.800 142.800 331.400 L 142.800 338.000 149.426 338.000 C 153.071 338.000,156.386 338.178,156.794 338.397 C 157.736 338.901,158.015 351.346,157.116 352.786 C 156.418 353.903,128.935 354.078,127.829 352.971 C 127.269 352.412,127.200 349.268,127.200 324.381 L 127.200 296.419 120.300 296.309 L 113.400 296.200 113.200 289.200 L 113.000 282.200 106.217 282.090 C 98.084 281.958,98.814 282.725,98.806 274.310 L 98.800 267.619 92.100 267.510 L 85.400 267.400 85.291 260.109 L 85.182 252.818 77.891 252.709 L 70.600 252.600 70.491 245.709 L 70.381 238.818 63.291 238.709 L 56.200 238.600 56.098 196.025 C 56.017 162.229,56.100 153.384,56.498 153.131 C 57.081 152.761,69.627 152.682,70.567 153.043 C 71.128 153.258,71.200 154.885,71.200 167.243 L 71.200 181.200 77.920 181.200 C 86.278 181.200,85.600 180.523,85.600 188.871 L 85.600 195.581 92.500 195.691 L 99.400 195.800 99.633 202.800 C 99.762 206.650,99.897 209.845,99.933 209.900 C 99.970 209.955,106.120 210.000,113.600 210.000 L 127.200 210.000 127.200 203.280 C 127.200 194.922,126.522 195.600,134.880 195.600 L 141.600 195.600 141.600 188.880 C 141.600 184.187,141.745 182.015,142.080 181.680 C 142.429 181.331,145.429 181.200,153.071 181.200 L 163.581 181.200 163.691 174.300 L 163.800 167.400 174.400 167.200 L 185.000 167.000 185.200 160.000 L 185.400 153.000 192.298 152.891 L 199.197 152.781 199.298 106.691 L 199.400 60.600 206.400 60.400 L 213.400 60.200 213.472 53.506 C 213.512 49.825,213.658 46.630,213.796 46.406 C 213.964 46.134,233.007 46.000,271.414 46.000 L 328.782 46.000 328.891 53.100 M228.800 75.000 L 228.800 81.600 235.400 81.600 L 242.000 81.600 242.000 75.000 L 242.000 68.400 235.400 68.400 L 228.800 68.400 228.800 75.000 " stroke="none" fill="#fbfbfb" fill-rule="evenodd"></path><path id="path2" d="M214.267 46.667 C 214.120 46.813,214.000 49.927,214.000 53.587 C 214.000 58.344,213.857 60.400,213.500 60.801 C 213.075 61.278,213.104 61.282,213.700 60.832 C 214.318 60.364,214.400 59.512,214.400 53.551 L 214.400 46.800 271.157 46.800 C 324.101 46.800,327.932 46.845,328.174 47.477 C 328.317 47.849,328.409 50.928,328.379 54.318 C 328.348 57.709,328.476 60.636,328.662 60.823 C 328.931 61.093,328.743 46.870,328.473 46.500 C 328.298 46.261,214.507 46.427,214.267 46.667 M199.867 61.067 C 199.720 61.213,199.600 82.003,199.600 107.267 L 199.600 153.200 192.880 153.200 C 184.550 153.200,185.179 152.623,185.284 160.180 L 185.368 166.200 185.584 160.000 L 185.800 153.800 192.800 153.600 L 199.800 153.400 199.902 107.639 C 199.975 74.631,200.128 61.728,200.451 61.339 C 200.896 60.802,200.375 60.559,199.867 61.067 M342.305 92.598 L 342.409 124.396 306.905 124.498 L 271.400 124.600 271.400 132.000 L 271.400 139.400 292.718 139.504 L 314.036 139.607 313.918 146.404 C 313.853 150.142,313.939 153.201,314.109 153.201 C 314.280 153.200,314.370 150.095,314.309 146.300 L 314.200 139.400 293.000 139.200 L 271.800 139.000 271.800 132.000 L 271.800 125.000 307.300 124.898 L 342.800 124.796 342.800 92.798 C 342.800 75.199,342.665 60.800,342.500 60.800 C 342.335 60.800,342.247 75.109,342.305 92.598 M228.000 75.000 L 228.000 82.418 235.300 82.309 L 242.600 82.200 242.600 75.000 L 242.600 67.800 235.300 67.691 L 228.000 67.582 228.000 75.000 M242.400 75.000 L 242.400 82.000 235.400 82.000 L 228.400 82.000 228.400 75.000 L 228.400 68.000 235.400 68.000 L 242.400 68.000 242.400 75.000 M56.588 153.691 C 56.481 153.971,56.440 173.100,56.497 196.200 L 56.600 238.200 63.600 238.400 L 70.600 238.600 70.800 245.400 L 71.000 252.200 78.200 252.400 L 85.400 252.600 85.509 259.700 L 85.618 266.800 92.400 266.800 L 99.182 266.800 99.291 274.100 L 99.400 281.400 106.400 281.600 L 113.400 281.800 113.600 288.800 L 113.800 295.800 120.800 296.000 L 127.800 296.200 127.903 324.500 L 128.005 352.800 142.403 352.800 L 156.800 352.800 156.710 345.700 L 156.620 338.600 156.501 345.500 L 156.381 352.400 142.391 352.400 L 128.400 352.400 128.394 324.500 C 128.391 309.155,128.248 296.380,128.076 296.110 C 127.856 295.762,125.795 295.588,120.983 295.510 L 114.200 295.400 114.000 288.400 L 113.800 281.400 106.709 281.291 L 99.618 281.182 99.509 273.891 L 99.400 266.600 92.700 266.490 L 86.000 266.381 85.994 259.690 C 85.986 251.264,86.747 252.041,78.382 251.910 L 71.400 251.800 71.289 245.428 C 71.150 237.369,71.807 238.000,63.549 238.000 L 56.796 238.000 56.898 195.900 L 57.000 153.800 63.700 153.690 L 70.400 153.581 70.400 167.510 C 70.400 181.836,70.464 182.439,71.980 182.373 C 72.391 182.355,72.298 182.200,71.705 181.914 L 70.810 181.482 70.705 167.441 L 70.600 153.400 63.691 153.291 C 58.383 153.206,56.737 153.299,56.588 153.691 M256.667 153.467 C 256.333 153.800,256.311 181.302,256.643 182.167 C 256.858 182.728,258.499 182.800,271.001 182.800 L 285.116 182.800 285.258 184.300 C 285.336 185.125,285.350 191.245,285.289 197.900 L 285.177 210.000 278.622 210.000 C 273.752 210.000,272.015 209.871,271.865 209.500 C 271.746 209.205,271.650 209.291,271.632 209.709 C 271.602 210.367,272.109 210.411,278.496 210.309 L 285.393 210.200 285.649 209.000 C 286.022 207.251,286.045 183.490,285.673 182.905 C 285.436 182.531,281.912 182.385,271.180 182.305 L 257.000 182.200 256.895 167.930 C 256.797 154.587,256.836 153.649,257.495 153.477 C 258.054 153.331,258.069 153.283,257.567 153.246 C 257.218 153.221,256.813 153.320,256.667 153.467 M185.200 166.927 C 185.200 167.521,184.148 167.597,174.700 167.693 L 164.200 167.800 164.091 174.700 C 164.030 178.495,163.940 181.638,163.891 181.684 C 163.841 181.730,158.940 181.865,153.000 181.984 L 142.200 182.200 142.091 189.100 L 141.981 196.000 135.214 196.000 C 131.492 196.000,128.363 196.135,128.261 196.300 C 128.158 196.465,131.253 196.510,135.137 196.400 L 142.200 196.200 142.400 189.400 L 142.600 182.600 153.400 182.377 C 159.340 182.255,164.245 182.120,164.300 182.077 C 164.355 182.035,164.400 178.850,164.400 175.000 L 164.400 168.000 174.813 168.000 C 185.256 168.000,186.728 167.795,185.449 166.516 C 185.312 166.379,185.200 166.564,185.200 166.927 M76.512 182.295 C 77.564 182.377,79.184 182.376,80.112 182.292 C 81.040 182.208,80.180 182.141,78.200 182.142 C 76.220 182.143,75.460 182.212,76.512 182.295 M83.300 182.276 L 84.800 182.448 84.800 189.237 C 84.800 194.308,84.926 196.069,85.300 196.200 C 86.201 196.514,99.201 196.608,99.201 196.300 C 99.200 196.135,96.054 196.000,92.209 196.000 L 85.219 196.000 85.109 189.100 L 85.000 182.200 83.400 182.152 L 81.800 182.105 83.300 182.276 M256.900 195.865 C 256.508 196.023,256.400 201.394,256.400 220.833 L 256.400 245.600 249.680 245.600 C 244.987 245.600,242.815 245.745,242.480 246.080 C 242.127 246.433,242.023 249.309,242.087 256.980 L 242.174 267.400 242.404 256.800 C 242.530 250.970,242.671 246.159,242.717 246.109 C 242.763 246.060,245.905 245.970,249.700 245.909 L 256.600 245.800 256.703 221.107 L 256.806 196.414 257.703 196.217 C 258.196 196.108,259.140 195.952,259.800 195.870 C 260.580 195.772,260.370 195.710,259.200 195.692 C 258.210 195.676,257.175 195.754,256.900 195.865 M266.095 195.899 C 272.120 196.047,271.554 195.311,271.715 203.200 L 271.825 208.600 271.913 202.580 C 272.021 195.126,272.405 195.576,266.020 195.687 L 261.000 195.774 266.095 195.899 M128.162 203.400 C 128.162 206.920,128.224 208.306,128.298 206.481 C 128.372 204.656,128.372 201.776,128.297 200.081 C 128.222 198.386,128.161 199.880,128.162 203.400 M99.303 210.000 C 99.482 210.657,127.012 211.147,127.655 210.505 C 127.823 210.337,121.638 210.250,113.910 210.310 C 102.875 210.397,99.782 210.311,99.499 209.910 C 99.226 209.524,99.179 209.545,99.303 210.000 M228.000 274.191 L 228.000 281.182 220.900 281.291 L 213.800 281.400 213.800 309.995 C 213.800 337.057,213.838 338.593,214.508 338.654 C 215.008 338.700,215.037 338.663,214.605 338.529 C 214.064 338.362,214.006 335.125,214.097 310.070 L 214.200 281.800 221.200 281.600 L 228.200 281.400 228.400 274.299 C 228.510 270.394,228.465 267.199,228.300 267.199 C 228.135 267.200,228.000 270.346,228.000 274.191 M171.067 295.467 C 170.920 295.613,170.800 298.849,170.800 302.656 L 170.800 309.579 164.700 309.701 L 158.600 309.822 164.900 309.911 L 171.200 310.000 171.200 302.800 L 171.200 295.600 178.167 295.600 C 183.366 295.600,185.185 295.727,185.335 296.100 C 185.456 296.399,185.550 296.318,185.568 295.900 C 185.601 295.181,171.766 294.767,171.067 295.467 M185.379 303.400 L 185.400 309.800 191.800 309.821 L 198.200 309.842 192.000 309.621 L 185.800 309.400 185.579 303.200 L 185.358 297.000 185.379 303.400 M156.880 310.080 C 156.545 310.415,156.400 312.587,156.400 317.280 L 156.400 324.000 149.449 324.000 C 143.305 324.000,142.434 324.081,141.949 324.700 C 141.465 325.317,141.474 325.342,142.029 324.910 C 142.457 324.576,144.887 324.384,149.629 324.310 L 156.600 324.200 156.710 317.437 C 156.805 311.584,156.913 310.603,157.510 310.150 C 157.889 309.861,158.011 309.620,157.780 309.613 C 157.549 309.606,157.144 309.816,156.880 310.080 M199.140 310.127 C 199.461 310.515,199.623 316.753,199.696 331.637 L 199.800 352.600 214.000 352.600 L 228.200 352.600 228.310 346.030 C 228.371 342.417,228.281 339.321,228.110 339.150 C 227.940 338.979,227.800 341.845,227.800 345.519 L 227.800 352.200 213.900 352.305 L 200.000 352.410 200.000 331.248 C 200.000 311.995,199.941 310.063,199.343 309.834 C 198.825 309.635,198.782 309.696,199.140 310.127 M146.917 338.697 C 148.411 338.774,150.751 338.774,152.117 338.696 C 153.482 338.618,152.260 338.555,149.400 338.555 C 146.540 338.556,145.422 338.620,146.917 338.697 M219.700 338.691 C 220.525 338.778,221.875 338.778,222.700 338.691 C 223.525 338.605,222.850 338.534,221.200 338.534 C 219.550 338.534,218.875 338.605,219.700 338.691 M225.105 338.683 C 225.602 338.779,226.322 338.775,226.705 338.675 C 227.087 338.575,226.680 338.496,225.800 338.501 C 224.920 338.505,224.607 338.587,225.105 338.683 " stroke="none" fill="#9c9c9c" fill-rule="evenodd"></path><path id="path3" d="M211.341 34.962 C 205.641 36.496,203.436 38.779,202.437 44.185 C 201.801 47.625,201.294 48.188,198.124 48.973 C 187.189 51.682,187.600 49.716,187.600 99.363 C 187.600 145.158,188.158 140.369,182.653 141.803 C 179.526 142.617,176.949 144.192,175.732 146.031 C 174.756 147.505,174.354 148.686,173.573 152.371 C 173.009 155.030,172.386 155.393,168.200 155.503 C 158.130 155.767,153.557 158.491,152.552 164.823 C 152.309 166.354,151.380 169.157,151.095 169.221 C 151.043 169.233,148.660 169.384,145.800 169.558 C 136.352 170.131,132.859 172.052,131.182 177.600 C 130.683 179.250,130.294 180.945,130.317 181.366 C 130.408 182.987,128.957 184.276,126.710 184.570 C 119.803 185.475,117.032 188.233,116.137 195.098 C 115.483 200.118,111.849 199.120,110.817 193.636 C 109.851 188.504,106.898 185.558,101.913 184.755 C 98.202 184.157,97.346 183.570,97.020 181.394 C 96.273 176.411,93.277 171.777,90.358 171.090 C 83.021 169.361,83.464 170.013,83.134 160.452 C 82.757 149.506,81.795 146.560,77.520 143.260 C 73.808 140.395,57.240 139.895,51.357 142.472 C 47.712 144.068,45.950 146.462,44.931 151.200 C 44.096 155.082,43.856 235.016,44.665 239.600 C 45.662 245.250,49.455 249.551,53.476 249.591 C 53.958 249.596,54.464 249.780,54.600 250.000 C 54.736 250.220,55.342 250.400,55.947 250.400 C 57.673 250.400,58.337 251.188,59.146 254.200 C 61.018 261.168,61.921 262.001,70.000 264.218 C 72.925 265.021,73.598 265.611,73.604 267.376 C 73.624 272.815,76.736 276.675,82.355 278.231 C 86.946 279.503,87.600 280.063,87.600 282.728 C 87.600 287.870,91.048 291.688,97.046 293.187 C 100.133 293.958,101.600 294.843,101.600 295.934 C 101.600 296.269,101.768 297.096,101.974 297.772 C 102.180 298.447,102.535 299.720,102.763 300.600 C 103.654 304.040,106.150 306.014,111.200 307.272 C 115.982 308.463,115.609 306.558,115.572 329.600 C 115.513 365.782,114.908 364.972,142.000 364.990 C 160.371 365.002,162.119 364.724,165.643 361.233 C 168.845 358.060,170.162 347.396,168.552 337.680 C 167.627 332.103,167.479 330.479,167.823 329.695 C 167.990 329.313,168.091 328.842,168.046 328.649 C 167.868 327.870,168.940 324.080,169.549 323.335 C 171.566 320.871,180.015 320.417,185.648 322.472 C 187.447 323.128,187.538 323.883,187.584 338.522 C 187.667 364.722,188.114 365.162,214.678 365.207 C 230.558 365.233,233.773 364.648,237.041 361.134 C 241.948 355.858,241.878 335.422,236.934 329.930 C 236.072 328.973,232.559 327.340,230.092 326.749 C 226.593 325.912,226.788 326.900,226.773 309.961 L 226.760 295.000 227.802 294.100 C 228.497 293.500,229.363 293.200,230.399 293.200 C 231.253 293.200,232.064 293.020,232.200 292.800 C 232.336 292.580,232.804 292.400,233.240 292.400 C 233.677 292.400,234.251 292.223,234.517 292.006 C 234.783 291.789,235.551 291.172,236.224 290.634 C 237.923 289.277,239.939 285.331,239.716 283.799 C 239.392 281.574,240.947 279.979,244.200 279.202 C 251.682 277.414,254.039 273.855,254.639 263.438 C 254.765 261.255,255.077 259.270,255.334 259.017 C 255.974 258.387,258.668 257.367,260.600 257.023 C 267.224 255.845,268.744 251.894,269.073 235.000 C 269.193 228.840,269.446 223.505,269.635 223.145 C 269.939 222.569,270.815 222.507,276.993 222.630 C 286.056 222.809,292.519 221.414,294.708 218.806 C 297.487 215.494,297.781 213.337,297.791 196.200 C 297.805 171.836,296.899 170.604,278.600 170.120 C 270.164 169.896,269.600 169.763,269.600 168.000 C 269.600 166.026,269.317 166.052,292.814 165.913 L 315.000 165.782 317.867 164.742 C 324.977 162.162,326.555 158.714,326.588 145.683 C 326.613 136.370,325.792 137.214,334.833 137.206 C 341.470 137.200,346.125 136.716,346.980 135.944 C 347.189 135.755,347.615 135.600,347.926 135.600 C 351.097 135.600,354.204 130.473,354.780 124.293 C 355.449 117.106,355.328 64.110,354.633 59.954 C 353.823 55.114,351.847 51.200,350.213 51.200 C 349.930 51.200,349.498 50.959,349.254 50.665 C 349.009 50.370,347.772 49.911,346.505 49.645 C 342.478 48.798,341.368 48.140,340.803 46.263 C 339.345 41.422,339.025 40.517,338.451 39.600 C 336.842 37.029,335.555 36.150,331.600 34.923 C 329.575 34.295,324.842 34.234,272.000 34.163 L 214.600 34.086 211.341 34.962 M332.400 37.303 C 333.390 37.689,334.583 38.203,335.051 38.444 C 336.554 39.219,338.291 44.135,338.498 48.200 L 338.600 50.200 340.498 50.418 C 341.542 50.538,342.613 50.853,342.878 51.118 C 343.143 51.383,344.107 51.600,345.020 51.600 C 346.651 51.600,350.258 53.159,350.900 54.141 C 352.708 56.907,352.962 61.777,352.937 93.200 C 352.905 133.686,353.211 132.271,344.000 134.514 C 343.010 134.755,338.093 134.984,333.074 135.022 C 322.826 135.101,323.141 135.001,323.706 138.000 C 323.934 139.210,324.114 142.990,324.107 146.400 C 324.081 159.325,322.799 161.746,315.200 163.235 C 314.210 163.429,303.107 163.588,290.527 163.588 C 274.839 163.588,267.572 163.721,267.393 164.012 C 267.053 164.561,267.050 171.434,267.389 171.982 C 267.556 172.252,270.792 172.403,276.524 172.410 C 281.460 172.415,286.110 172.607,287.000 172.842 C 287.880 173.075,289.140 173.367,289.800 173.491 C 293.024 174.098,294.418 176.141,295.369 181.656 C 295.746 183.847,295.628 209.503,295.229 211.800 C 294.420 216.466,293.126 218.511,290.671 219.005 C 289.972 219.145,288.301 219.525,286.957 219.849 C 284.453 220.453,273.787 220.420,269.503 219.796 C 267.016 219.434,267.144 218.824,267.033 231.483 C 266.861 251.079,265.426 255.200,258.778 255.200 C 257.645 255.200,256.622 255.435,256.285 255.773 C 255.970 256.087,255.012 256.402,254.156 256.473 L 252.600 256.600 252.361 262.400 C 252.229 265.590,252.014 268.560,251.883 269.000 C 251.751 269.440,251.535 270.479,251.402 271.309 C 251.121 273.061,249.076 275.600,247.944 275.600 C 247.520 275.600,246.696 275.915,246.114 276.300 C 245.532 276.685,243.623 277.180,241.871 277.400 L 238.685 277.800 238.193 279.473 C 237.922 280.393,237.781 281.566,237.879 282.080 C 238.152 283.507,236.445 287.604,235.045 288.882 C 233.567 290.232,232.082 290.739,227.800 291.354 L 224.600 291.814 224.600 310.001 L 224.600 328.189 226.800 328.476 C 236.814 329.781,238.131 331.828,238.078 346.000 C 238.042 355.503,237.612 357.594,235.202 359.990 C 233.832 361.352,233.238 361.590,228.294 362.752 C 225.751 363.350,202.295 363.357,199.706 362.761 C 189.942 360.513,189.991 360.640,189.636 336.600 L 189.400 320.600 186.820 320.316 C 185.401 320.159,183.781 319.865,183.220 319.662 C 179.250 318.226,178.517 318.184,175.000 319.193 C 173.362 319.664,172.810 319.768,169.485 320.237 C 167.187 320.561,166.791 321.140,166.355 324.800 C 166.185 326.230,165.822 328.451,165.549 329.735 C 165.151 331.610,165.154 332.399,165.564 333.735 C 168.979 344.874,166.390 361.600,161.250 361.600 C 160.809 361.600,160.348 361.761,160.226 361.958 C 159.633 362.917,129.173 363.733,128.255 362.815 C 128.027 362.587,127.273 362.400,126.580 362.400 C 123.623 362.400,120.557 360.577,119.386 358.123 C 118.148 355.529,117.905 351.336,117.648 328.210 L 117.400 305.819 113.400 305.381 C 107.202 304.701,104.658 302.628,104.166 297.854 C 104.072 296.944,103.862 295.216,103.698 294.013 L 103.400 291.826 99.800 291.380 C 92.086 290.423,89.621 287.705,89.606 280.139 L 89.600 277.277 87.700 277.090 C 78.693 276.201,76.584 274.118,75.667 265.200 L 75.400 262.600 73.000 262.313 C 71.680 262.155,70.150 261.933,69.600 261.819 C 69.050 261.705,67.880 261.461,67.000 261.276 C 63.896 260.624,62.440 258.969,61.481 255.000 C 61.144 253.607,61.045 252.694,60.840 249.100 C 60.808 248.533,60.424 248.400,58.824 248.400 C 57.737 248.400,56.729 248.209,56.585 247.976 C 56.441 247.743,55.936 247.588,55.462 247.632 C 50.471 248.088,47.345 244.466,46.632 237.400 C 46.300 234.111,46.425 156.361,46.766 154.277 C 46.939 153.219,47.016 151.959,46.938 151.477 C 45.414 142.059,74.749 139.081,79.157 148.206 C 80.583 151.159,80.996 155.788,81.194 171.060 C 81.197 171.313,81.965 171.614,82.900 171.728 C 91.086 172.735,94.400 175.129,94.400 180.036 C 94.400 180.650,94.601 181.277,94.846 181.428 C 95.120 181.598,95.220 182.456,95.105 183.652 C 94.867 186.122,95.048 186.251,99.200 186.583 C 104.630 187.017,107.557 188.741,108.210 191.890 C 108.336 192.500,108.636 193.664,108.876 194.476 C 109.116 195.287,109.218 196.652,109.103 197.509 C 108.748 200.152,109.117 200.400,113.410 200.400 C 117.919 200.400,118.149 200.162,118.512 195.127 C 118.946 189.126,121.148 187.123,127.885 186.602 C 132.284 186.262,132.223 186.323,132.549 181.889 C 133.141 173.813,135.670 172.158,148.200 171.645 L 154.200 171.400 154.476 167.526 C 155.045 159.553,157.101 158.228,169.800 157.653 L 175.400 157.400 175.638 154.200 C 176.219 146.397,178.800 144.005,187.700 143.022 C 188.305 142.955,188.978 142.877,189.196 142.850 C 189.454 142.817,189.639 128.509,189.726 101.900 C 189.861 60.233,189.941 58.022,191.418 55.164 C 192.551 52.971,194.915 51.600,197.560 51.600 C 198.364 51.600,199.450 51.300,199.973 50.934 C 200.495 50.568,201.660 50.253,202.562 50.234 L 204.200 50.200 204.459 46.400 C 204.909 39.806,207.077 37.444,213.400 36.660 C 218.360 36.044,330.732 36.651,332.400 37.303 M213.549 46.700 C 213.063 47.320,213.073 47.343,213.639 46.901 C 214.142 46.510,226.570 46.381,271.639 46.300 L 329.000 46.197 271.549 46.099 C 217.242 46.005,214.068 46.038,213.549 46.700 M203.600 48.800 C 203.600 49.333,203.333 49.600,202.800 49.600 C 201.893 49.600,201.775 49.185,202.480 48.480 C 203.185 47.775,203.600 47.893,203.600 48.800 M340.216 48.827 C 340.585 49.422,340.158 49.746,339.392 49.452 C 339.038 49.317,338.861 49.024,338.998 48.803 C 339.322 48.278,339.884 48.289,340.216 48.827 M199.384 60.900 C 199.280 61.175,199.240 81.920,199.297 107.000 L 199.400 152.600 199.600 106.500 C 199.710 81.145,199.749 60.400,199.687 60.400 C 199.626 60.400,199.489 60.625,199.384 60.900 M343.298 92.451 C 343.218 118.564,343.103 124.383,342.662 124.749 C 342.276 125.069,332.132 125.225,306.962 125.298 L 271.800 125.400 271.800 132.000 L 271.800 138.600 293.000 138.800 L 314.200 139.000 314.200 146.262 C 314.200 150.256,314.335 153.441,314.500 153.339 C 315.028 153.012,314.858 139.418,314.320 138.880 C 313.959 138.519,308.658 138.400,292.920 138.400 L 272.000 138.400 272.000 132.000 L 272.000 125.600 307.138 125.600 C 340.718 125.600,342.305 125.567,342.940 124.866 C 343.550 124.192,343.596 121.500,343.500 92.366 L 343.395 60.600 343.298 92.451 M228.581 68.506 C 228.470 68.796,228.429 71.905,228.489 75.416 L 228.600 81.800 235.400 81.800 L 242.200 81.800 242.200 75.000 L 242.200 68.200 235.491 68.090 C 230.239 68.004,228.739 68.095,228.581 68.506 M242.000 75.000 L 242.000 81.600 235.400 81.600 L 228.800 81.600 228.800 75.000 L 228.800 68.400 235.400 68.400 L 242.000 68.400 242.000 75.000 M325.594 136.100 C 325.580 137.259,324.903 137.739,324.457 136.907 C 324.221 136.466,324.142 135.992,324.281 135.853 C 324.720 135.413,325.600 135.579,325.594 136.100 M189.000 141.628 C 189.000 141.937,188.685 142.250,188.300 142.324 C 187.611 142.457,187.325 141.608,187.875 141.058 C 188.294 140.639,189.000 140.996,189.000 141.628 M56.500 153.065 C 55.936 153.292,55.738 238.191,56.300 238.538 C 56.465 238.640,56.600 219.526,56.600 196.062 L 56.600 153.400 63.600 153.186 L 70.600 152.971 63.800 152.917 C 60.060 152.887,56.775 152.954,56.500 153.065 M185.461 153.100 C 185.358 153.265,187.372 153.353,189.937 153.295 C 198.540 153.102,199.452 152.955,192.524 152.877 C 188.742 152.835,185.563 152.935,185.461 153.100 M70.992 167.200 L 71.000 181.400 78.000 181.600 L 85.000 181.800 85.200 188.800 L 85.400 195.800 92.463 196.000 C 96.347 196.110,99.442 196.065,99.339 195.900 C 99.237 195.735,96.103 195.600,92.376 195.600 L 85.600 195.600 85.600 188.880 C 85.600 180.522,86.278 181.200,77.925 181.200 L 71.210 181.200 71.097 167.100 L 70.984 153.000 70.992 167.200 M257.067 153.867 C 256.697 154.237,256.729 181.509,257.100 181.738 C 257.265 181.841,257.350 175.727,257.290 168.153 L 257.180 154.382 258.090 154.016 C 258.957 153.668,258.961 153.650,258.167 153.625 C 257.708 153.611,257.213 153.720,257.067 153.867 M273.900 153.900 C 281.215 153.961,293.185 153.961,300.500 153.900 C 307.815 153.839,301.830 153.789,287.200 153.789 C 272.570 153.789,266.585 153.839,273.900 153.900 M175.200 156.236 C 175.200 156.930,174.229 157.389,173.593 156.996 C 173.287 156.806,173.359 156.487,173.827 155.970 C 174.559 155.161,175.200 155.285,175.200 156.236 M269.200 164.751 C 269.200 165.255,268.026 166.159,267.741 165.874 C 267.331 165.465,267.943 164.400,268.587 164.400 C 268.924 164.400,269.200 164.558,269.200 164.751 M163.688 174.900 L 163.600 181.200 153.080 181.200 C 145.431 181.200,142.429 181.331,142.080 181.680 C 141.745 182.015,141.600 184.187,141.600 188.880 L 141.600 195.600 134.880 195.600 C 126.498 195.600,127.179 194.902,127.286 203.380 L 127.371 210.200 127.586 203.200 L 127.800 196.200 134.800 196.000 L 141.800 195.800 142.000 188.800 L 142.200 181.800 152.915 181.693 C 161.163 181.611,163.675 181.469,163.826 181.076 C 163.934 180.795,163.967 177.873,163.900 174.582 L 163.777 168.600 163.688 174.900 M82.734 170.376 C 82.824 170.996,82.696 171.233,82.334 171.113 C 82.040 171.016,81.740 170.526,81.666 170.024 C 81.576 169.404,81.704 169.167,82.066 169.287 C 82.360 169.384,82.660 169.874,82.734 170.376 M153.600 170.176 C 153.600 170.813,152.874 171.408,152.524 171.057 C 152.195 170.728,152.709 169.600,153.187 169.600 C 153.414 169.600,153.600 169.859,153.600 170.176 M268.720 170.480 C 269.425 171.185,269.307 171.600,268.400 171.600 C 267.867 171.600,267.600 171.333,267.600 170.800 C 267.600 169.893,268.015 169.775,268.720 170.480 M286.094 196.220 C 286.025 206.171,285.871 209.969,285.520 210.320 C 285.155 210.685,285.153 210.800,285.512 210.800 C 286.344 210.800,286.426 209.255,286.306 195.800 L 286.189 182.600 286.094 196.220 M131.600 185.024 C 131.600 185.612,130.746 185.813,130.270 185.337 C 129.908 184.975,130.805 183.956,131.245 184.228 C 131.440 184.349,131.600 184.707,131.600 185.024 M97.100 185.100 C 97.198 185.393,96.922 185.600,96.433 185.600 C 95.942 185.600,95.600 185.342,95.600 184.971 C 95.600 184.236,96.848 184.343,97.100 185.100 M256.989 196.900 C 256.670 197.755,256.583 246.335,256.900 246.138 C 257.065 246.036,257.200 234.898,257.200 221.386 L 257.200 196.818 264.300 196.699 L 271.400 196.580 264.287 196.490 C 258.896 196.422,257.130 196.521,256.989 196.900 M117.050 199.484 C 116.931 199.602,116.553 199.591,116.208 199.458 C 115.653 199.246,115.663 199.136,116.291 198.500 C 116.973 197.809,117.005 197.810,117.132 198.525 C 117.205 198.934,117.168 199.365,117.050 199.484 M111.351 199.280 C 111.073 199.729,110.096 199.679,109.800 199.200 C 109.343 198.461,109.998 197.992,110.793 198.488 C 111.208 198.748,111.459 199.104,111.351 199.280 M269.327 220.660 C 269.588 220.921,268.466 221.963,267.900 221.987 C 267.735 221.994,267.600 221.640,267.600 221.200 C 267.600 220.424,268.735 220.069,269.327 220.660 M247.682 246.296 C 249.158 246.373,251.678 246.373,253.282 246.297 C 254.887 246.221,253.680 246.158,250.600 246.158 C 247.520 246.157,246.207 246.219,247.682 246.296 M60.248 249.381 C 60.616 250.341,60.026 250.883,59.349 250.206 C 58.746 249.603,58.910 248.800,59.636 248.800 C 59.850 248.800,60.125 249.061,60.248 249.381 M70.503 252.000 C 70.640 252.505,71.832 252.602,78.033 252.615 L 85.400 252.629 78.218 252.505 C 73.125 252.417,70.934 252.238,70.687 251.890 C 70.435 251.535,70.384 251.566,70.503 252.000 M254.080 258.080 C 253.707 258.453,253.490 258.450,253.103 258.063 C 252.708 257.668,252.727 257.492,253.200 257.200 C 253.564 256.975,253.941 256.981,254.177 257.217 C 254.421 257.461,254.386 257.774,254.080 258.080 M74.946 264.414 C 74.413 264.947,73.402 263.844,73.813 263.179 C 74.013 262.856,74.279 262.908,74.730 263.359 C 75.174 263.802,75.239 264.121,74.946 264.414 M85.363 266.890 C 85.440 267.273,87.118 267.427,92.124 267.510 L 98.781 267.619 98.901 274.510 L 99.020 281.400 99.110 274.300 L 99.200 267.200 92.433 267.200 C 88.211 267.200,85.590 267.046,85.463 266.790 C 85.352 266.565,85.306 266.610,85.363 266.890 M228.667 267.867 C 228.520 268.013,228.400 271.148,228.400 274.833 C 228.400 279.010,228.246 281.610,227.990 281.737 C 227.764 281.849,227.810 281.894,228.090 281.837 C 228.474 281.759,228.627 280.044,228.709 274.877 L 228.819 268.019 235.509 267.899 L 242.200 267.779 235.567 267.690 C 231.918 267.640,228.813 267.720,228.667 267.867 M89.022 278.035 C 89.169 278.274,89.082 278.678,88.828 278.932 C 88.382 279.378,87.623 278.738,87.606 277.900 C 87.597 277.438,88.719 277.545,89.022 278.035 M240.183 278.772 C 240.479 279.251,239.726 279.725,239.193 279.396 C 238.746 279.119,239.040 278.400,239.600 278.400 C 239.794 278.400,240.056 278.568,240.183 278.772 M214.184 282.500 C 214.079 282.775,214.040 295.330,214.097 310.400 L 214.200 337.800 214.400 309.900 C 214.510 294.555,214.549 282.000,214.487 282.000 C 214.426 282.000,214.289 282.225,214.184 282.500 M103.000 292.800 C 103.431 293.497,102.792 294.092,102.169 293.574 C 101.861 293.318,101.707 292.950,101.828 292.755 C 102.120 292.283,102.694 292.305,103.000 292.800 M226.400 292.751 C 226.400 293.255,225.226 294.159,224.941 293.874 C 224.531 293.465,225.143 292.400,225.787 292.400 C 226.124 292.400,226.400 292.558,226.400 292.751 M113.302 295.600 C 113.438 296.098,114.632 296.219,120.333 296.309 L 127.200 296.419 127.200 324.381 C 127.200 349.268,127.269 352.412,127.829 352.971 C 128.935 354.078,156.418 353.903,157.116 352.786 C 157.656 351.921,157.795 338.968,157.267 338.641 C 157.120 338.550,157.060 341.527,157.134 345.256 C 157.230 350.135,157.132 352.200,156.785 352.619 C 156.095 353.449,128.739 353.491,128.052 352.662 C 127.735 352.281,127.576 344.009,127.503 324.162 L 127.400 296.200 120.617 296.090 C 115.830 296.012,113.732 295.836,113.487 295.490 C 113.235 295.136,113.184 295.166,113.302 295.600 M173.600 295.871 C 178.892 296.160,185.111 296.175,184.939 295.900 C 184.837 295.735,181.748 295.634,178.076 295.676 C 174.404 295.717,172.390 295.805,173.600 295.871 M171.195 303.400 L 171.000 310.200 164.100 310.309 L 157.200 310.419 157.200 316.836 C 157.200 320.948,157.033 323.566,156.735 324.126 C 156.314 324.916,156.333 324.947,156.935 324.451 C 157.506 323.980,157.600 322.974,157.600 317.351 L 157.600 310.800 164.100 310.794 C 172.365 310.786,171.643 311.509,171.505 303.370 L 171.389 296.600 171.195 303.400 M117.200 307.191 C 117.200 307.888,117.081 307.929,116.213 307.533 C 115.112 307.031,115.230 306.400,116.424 306.400 C 116.931 306.400,117.200 306.675,117.200 307.191 M185.461 310.500 C 185.563 310.665,188.697 310.800,192.424 310.800 L 199.200 310.800 199.200 331.720 C 199.200 347.458,199.319 352.759,199.680 353.120 C 200.368 353.808,227.632 353.808,228.320 353.120 C 228.995 352.445,228.995 339.155,228.320 338.480 C 227.977 338.137,225.892 338.024,221.020 338.086 L 214.200 338.171 221.200 338.386 L 228.200 338.600 228.200 345.800 L 228.200 353.000 214.000 353.000 L 199.800 353.000 199.600 331.800 L 199.400 310.600 192.337 310.400 C 188.453 310.290,185.358 310.335,185.461 310.500 M189.200 321.819 C 189.200 322.113,189.040 322.451,188.845 322.572 C 188.368 322.867,187.467 321.739,187.778 321.235 C 188.110 320.699,189.200 321.147,189.200 321.819 M168.708 321.675 C 168.461 322.417,167.600 322.540,167.600 321.833 C 167.600 321.485,167.885 321.200,168.233 321.200 C 168.582 321.200,168.795 321.414,168.708 321.675 M142.490 331.500 L 142.400 338.400 149.500 338.310 L 156.600 338.220 149.710 338.101 L 142.819 337.981 142.699 331.291 L 142.579 324.600 142.490 331.500 M226.400 327.249 C 226.400 327.731,225.305 327.693,225.000 327.200 C 224.568 326.500,225.209 325.909,225.836 326.430 C 226.146 326.687,226.400 327.056,226.400 327.249 " stroke="none" fill="#d4d4d4" fill-rule="evenodd"></path><path id="path4" d="M213.867 46.667 C 213.720 46.813,213.600 49.963,213.600 53.667 L 213.600 60.400 206.824 60.400 C 203.097 60.400,199.963 60.535,199.861 60.700 C 199.758 60.865,202.853 60.910,206.737 60.800 L 213.800 60.600 214.000 53.499 C 214.110 49.594,214.185 46.399,214.167 46.399 C 214.148 46.400,214.013 46.520,213.867 46.667 M202.480 48.480 C 201.775 49.185,201.893 49.600,202.800 49.600 C 203.333 49.600,203.600 49.333,203.600 48.800 C 203.600 47.893,203.185 47.775,202.480 48.480 M338.998 48.803 C 338.861 49.024,339.038 49.317,339.392 49.452 C 340.158 49.746,340.585 49.422,340.216 48.827 C 339.884 48.289,339.322 48.278,338.998 48.803 M332.100 60.698 C 334.025 60.771,337.175 60.771,339.100 60.698 C 341.025 60.625,339.450 60.565,335.600 60.565 C 331.750 60.565,330.175 60.625,332.100 60.698 M342.991 92.600 C 342.991 110.200,343.040 117.342,343.100 108.470 C 343.160 99.599,343.160 85.199,343.100 76.470 C 343.040 67.742,342.991 75.000,342.991 92.600 M271.862 125.100 C 271.694 125.372,297.054 125.369,330.000 125.094 C 336.930 125.036,326.726 124.946,307.324 124.894 C 287.922 124.842,271.964 124.935,271.862 125.100 M324.281 135.853 C 324.142 135.992,324.221 136.466,324.457 136.907 C 324.803 137.552,324.954 137.600,325.237 137.154 C 325.960 136.013,325.181 134.953,324.281 135.853 M271.933 138.893 C 272.094 139.054,281.706 139.234,293.293 139.293 C 304.880 139.352,314.228 139.268,314.067 139.107 C 313.906 138.946,304.294 138.766,292.707 138.707 C 281.120 138.648,271.772 138.732,271.933 138.893 M187.875 141.058 C 187.325 141.608,187.611 142.457,188.300 142.324 C 188.685 142.250,189.000 141.937,189.000 141.628 C 189.000 140.996,188.294 140.639,187.875 141.058 M258.705 153.483 C 259.202 153.579,259.922 153.575,260.305 153.475 C 260.687 153.375,260.280 153.296,259.400 153.301 C 258.520 153.305,258.207 153.387,258.705 153.483 M273.500 153.500 C 280.375 153.561,291.625 153.561,298.500 153.500 C 305.375 153.438,299.750 153.388,286.000 153.388 C 272.250 153.388,266.625 153.438,273.500 153.500 M173.827 155.970 C 173.359 156.487,173.287 156.806,173.593 156.996 C 174.229 157.389,175.200 156.930,175.200 156.236 C 175.200 155.285,174.559 155.161,173.827 155.970 M267.738 165.017 C 267.608 165.357,267.609 165.742,267.741 165.874 C 268.026 166.159,269.200 165.255,269.200 164.751 C 269.200 164.147,267.987 164.368,267.738 165.017 M169.676 167.499 C 172.468 167.567,177.148 167.568,180.076 167.499 C 183.004 167.431,180.720 167.375,175.000 167.374 C 169.280 167.374,166.884 167.430,169.676 167.499 M81.666 170.024 C 81.740 170.526,82.040 171.016,82.334 171.113 C 82.696 171.233,82.824 170.996,82.734 170.376 C 82.660 169.874,82.360 169.384,82.066 169.287 C 81.704 169.167,81.576 169.404,81.666 170.024 M152.538 170.217 C 152.408 170.557,152.401 170.935,152.524 171.057 C 152.874 171.408,153.600 170.813,153.600 170.176 C 153.600 169.409,152.837 169.438,152.538 170.217 M267.600 170.800 C 267.600 171.333,267.867 171.600,268.400 171.600 C 269.307 171.600,269.425 171.185,268.720 170.480 C 268.015 169.775,267.600 169.893,267.600 170.800 M73.600 181.871 C 78.892 182.160,85.111 182.175,84.939 181.900 C 84.837 181.735,81.748 181.634,78.076 181.676 C 74.404 181.717,72.390 181.805,73.600 181.871 M142.261 181.900 C 142.159 182.065,145.253 182.154,149.138 182.098 C 162.180 181.908,163.474 181.767,152.924 181.683 C 147.162 181.637,142.363 181.735,142.261 181.900 M257.061 182.100 C 257.164 182.265,263.612 182.400,271.390 182.400 C 280.650 182.400,285.604 182.542,285.737 182.810 C 285.849 183.036,285.894 182.990,285.837 182.710 C 285.757 182.312,282.551 182.156,271.305 182.000 C 263.369 181.890,256.959 181.935,257.061 182.100 M130.449 184.541 C 129.963 185.127,130.239 185.600,131.067 185.600 C 131.663 185.600,131.797 184.569,131.245 184.228 C 131.050 184.107,130.692 184.248,130.449 184.541 M95.600 184.971 C 95.600 185.342,95.942 185.600,96.433 185.600 C 97.408 185.600,97.270 184.665,96.267 184.471 C 95.872 184.394,95.600 184.598,95.600 184.971 M127.867 196.267 C 127.720 196.413,127.600 199.561,127.600 203.262 L 127.600 209.990 113.500 210.103 L 99.400 210.216 113.600 210.208 L 127.800 210.200 128.000 203.099 C 128.110 199.194,128.185 195.999,128.167 195.999 C 128.148 196.000,128.013 196.120,127.867 196.267 M260.900 196.298 C 262.825 196.371,265.975 196.371,267.900 196.298 C 269.825 196.225,268.250 196.165,264.400 196.165 C 260.550 196.165,258.975 196.225,260.900 196.298 M99.362 202.600 C 99.362 206.120,99.424 207.506,99.498 205.681 C 99.572 203.856,99.572 200.976,99.497 199.281 C 99.422 197.586,99.361 199.080,99.362 202.600 M271.364 203.400 C 271.363 207.140,271.423 208.724,271.497 206.920 C 271.571 205.115,271.572 202.055,271.498 200.120 C 271.425 198.184,271.364 199.660,271.364 203.400 M116.291 198.500 C 115.663 199.136,115.653 199.246,116.208 199.458 C 117.005 199.764,117.300 199.467,117.132 198.525 C 117.005 197.810,116.973 197.809,116.291 198.500 M109.795 198.408 C 109.469 198.935,109.918 199.600,110.600 199.600 C 111.500 199.600,111.605 198.996,110.793 198.488 C 110.314 198.190,109.948 198.160,109.795 198.408 M285.573 209.000 L 285.400 210.200 278.800 210.415 L 272.200 210.630 278.651 210.715 C 285.613 210.807,286.231 210.637,285.904 208.722 C 285.767 207.922,285.723 207.958,285.573 209.000 M267.600 221.200 C 267.600 222.125,267.921 222.186,268.894 221.448 C 269.674 220.855,269.431 220.400,268.333 220.400 C 267.867 220.400,267.600 220.691,267.600 221.200 M56.661 238.500 C 56.763 238.665,59.892 238.800,63.614 238.800 L 70.380 238.800 70.505 245.200 L 70.631 251.601 70.615 245.100 L 70.600 238.600 63.537 238.400 C 59.653 238.290,56.558 238.335,56.661 238.500 M242.493 256.867 C 242.423 264.635,242.278 267.182,241.900 267.335 C 241.508 267.493,241.511 267.544,241.913 267.568 C 242.770 267.621,242.818 266.940,242.700 256.593 L 242.585 246.600 242.493 256.867 M58.998 249.203 C 58.861 249.425,59.019 249.876,59.349 250.206 C 60.026 250.883,60.616 250.341,60.248 249.381 C 59.990 248.709,59.359 248.619,58.998 249.203 M85.365 259.600 C 85.365 263.450,85.425 265.025,85.498 263.100 C 85.571 261.175,85.571 258.025,85.498 256.100 C 85.425 254.175,85.365 255.750,85.365 259.600 M253.200 257.200 C 252.727 257.492,252.708 257.668,253.103 258.063 C 253.490 258.450,253.707 258.453,254.080 258.080 C 254.386 257.774,254.421 257.461,254.177 257.217 C 253.941 256.981,253.564 256.975,253.200 257.200 M73.813 263.179 C 73.402 263.844,74.413 264.947,74.946 264.414 C 75.239 264.121,75.174 263.802,74.730 263.359 C 74.279 262.908,74.013 262.856,73.813 263.179 M88.900 267.098 C 90.825 267.171,93.975 267.171,95.900 267.098 C 97.825 267.025,96.250 266.965,92.400 266.965 C 88.550 266.965,86.975 267.025,88.900 267.098 M228.661 267.500 C 228.558 267.665,230.302 267.752,232.537 267.694 C 239.890 267.503,240.691 267.349,234.724 267.274 C 231.492 267.233,228.763 267.335,228.661 267.500 M87.606 277.900 C 87.623 278.738,88.382 279.378,88.828 278.932 C 89.082 278.678,89.169 278.274,89.022 278.035 C 88.719 277.545,87.597 277.438,87.606 277.900 M239.017 278.772 C 238.721 279.251,239.474 279.725,240.007 279.396 C 240.454 279.119,240.160 278.400,239.600 278.400 C 239.406 278.400,239.144 278.568,239.017 278.772 M106.590 281.895 L 113.181 282.019 113.305 288.610 L 113.430 295.201 113.415 288.500 L 113.400 281.800 106.700 281.785 L 99.999 281.770 106.590 281.895 M214.261 281.900 C 214.158 282.065,216.172 282.153,218.737 282.096 C 227.057 281.909,227.945 281.753,221.124 281.676 C 217.452 281.634,214.363 281.735,214.261 281.900 M101.828 292.755 C 101.707 292.950,101.861 293.318,102.169 293.574 C 102.792 294.092,103.431 293.497,103.000 292.800 C 102.694 292.305,102.120 292.283,101.828 292.755 M224.938 293.017 C 224.808 293.357,224.809 293.742,224.941 293.874 C 225.226 294.159,226.400 293.255,226.400 292.751 C 226.400 292.147,225.187 292.368,224.938 293.017 M127.600 324.320 L 127.800 352.600 127.903 324.623 C 127.959 309.235,127.869 296.509,127.703 296.343 C 127.536 296.176,127.490 308.766,127.600 324.320 M115.436 306.742 C 115.320 306.929,115.669 307.285,116.213 307.533 C 117.081 307.929,117.200 307.888,117.200 307.191 C 117.200 306.386,115.866 306.046,115.436 306.742 M185.520 310.081 C 185.675 310.235,188.898 310.415,192.682 310.481 C 196.466 310.546,199.435 310.474,199.280 310.319 C 199.125 310.165,195.902 309.985,192.118 309.919 C 188.334 309.854,185.365 309.926,185.520 310.081 M160.920 310.298 C 162.855 310.372,165.915 310.371,167.720 310.297 C 169.524 310.223,167.940 310.163,164.200 310.164 C 160.460 310.164,158.984 310.225,160.920 310.298 M156.964 317.000 C 156.963 320.740,157.023 322.324,157.097 320.520 C 157.171 318.715,157.172 315.655,157.098 313.720 C 157.025 311.784,156.964 313.260,156.964 317.000 M187.778 321.235 C 187.467 321.739,188.368 322.867,188.845 322.572 C 189.402 322.228,189.261 321.309,188.613 321.060 C 188.290 320.936,187.914 321.015,187.778 321.235 M167.600 321.833 C 167.600 322.182,167.814 322.395,168.075 322.308 C 168.817 322.061,168.940 321.200,168.233 321.200 C 167.885 321.200,167.600 321.485,167.600 321.833 M149.400 324.386 L 142.200 324.600 142.185 331.300 L 142.170 338.001 142.295 331.400 L 142.419 324.800 149.386 324.800 C 153.599 324.800,156.451 324.642,156.600 324.400 C 156.736 324.180,156.792 324.039,156.724 324.086 C 156.656 324.133,153.360 324.268,149.400 324.386 M225.012 326.381 C 224.667 326.939,225.107 327.600,225.824 327.600 C 226.558 327.600,226.564 327.034,225.836 326.430 C 225.450 326.109,225.189 326.094,225.012 326.381 M155.575 338.623 C 156.222 338.746,156.833 339.110,156.934 339.431 C 157.052 339.803,157.096 339.758,157.056 339.308 C 157.012 338.813,156.604 338.570,155.697 338.500 C 154.460 338.405,154.454 338.410,155.575 338.623 M156.959 346.800 C 156.959 349.990,157.021 351.295,157.097 349.700 C 157.173 348.105,157.173 345.495,157.097 343.900 C 157.021 342.305,156.959 343.610,156.959 346.800 M199.862 352.900 C 199.964 353.065,206.326 353.200,214.000 353.200 C 221.674 353.200,228.036 353.065,228.138 352.900 C 228.240 352.735,221.878 352.600,214.000 352.600 C 206.122 352.600,199.760 352.735,199.862 352.900 M135.300 353.099 C 139.205 353.165,145.595 353.165,149.500 353.099 C 153.405 353.034,150.210 352.980,142.400 352.980 C 134.590 352.980,131.395 353.034,135.300 353.099 " stroke="none" fill="#bfbfbf" fill-rule="evenodd"></path></g></svg>